# xmcd CD database file
#
# Track frame offsets:
#	150
#	15394
#	31448
#	49129
#	64050
#	85102
#	103037
#	113648
#	126097
#	133695
#	145433
#	162325
#
# Disc length: 2334 seconds
#
# Revision: 0
# Processed by: cddbd v1.4PL0 Copyright (c) Steve Scherf et al.
# Submitted via: CDex 1.50beta9
#
DISCID=a0091c0c
DTITLE=5 Style - Minature Portraits
DYEAR=1999
DGENRE=Jazz
TTITLE0=Mythical Numbers
TTITLE1=Marmy the Count
TTITLE2=Father Time
TTITLE3=Lost Oar
TTITLE4=Here We Go
TTITLE5=Pledge Drive
TTITLE6=Wrong About You
TTITLE7=Hit the Decks
TTITLE8=Fancy Dance in Jeremy's Pants
TTITLE9=Sailor Girl Song
TTITLE10=Pet the Cow
TTITLE11=Playful Sounds for Hustile Grounds (Reprise)
EXTD=YEAR: 1999
EXTT0=
EXTT1=
EXTT2=
EXTT3=
EXTT4=
EXTT5=
EXTT6=
EXTT7=
EXTT8=
EXTT9=
EXTT10=
EXTT11=
PLAYORDER=
